<svg width="18" height="15" viewBox="0 0 18 15" fill="none" xmlns="http://www.w3.org/2000/svg">
<path d="M5.66067 15C12.4535 15 16.1685 9.2295 16.1685 4.22557C16.1685 4.06142 16.1655 3.89805 16.1578 3.73626C16.8786 3.20138 17.5059 2.53456 18 1.77584C17.3382 2.07744 16.6258 2.28008 15.879 2.37198C16.6411 1.90308 17.2271 1.16164 17.5029 0.277254C16.789 0.710807 15.9992 1.02655 15.1582 1.1962C14.4841 0.460258 13.5243 0 12.4627 0C10.4228 0 8.76905 1.69573 8.76905 3.78652C8.76905 4.08341 8.80123 4.37245 8.8648 4.6497C5.79548 4.49183 3.07392 2.98461 1.25239 0.693528C0.935274 1.25275 0.752202 1.90308 0.752202 2.59661C0.752202 3.91062 1.40406 5.0699 2.39602 5.74851C1.79012 5.72966 1.22099 5.55844 0.723094 5.2749C0.722328 5.29061 0.722329 5.30631 0.722329 5.32281C0.722329 7.15677 1.9954 8.68834 3.68518 9.0355C3.37495 9.1219 3.04864 9.16902 2.71161 9.16902C2.47338 9.16902 2.24205 9.14468 2.01762 9.10069C2.48794 10.6048 3.8514 11.6997 5.46764 11.7311C4.20375 12.7466 2.61126 13.3522 0.880889 13.3522C0.582918 13.3522 0.288778 13.3349 0 13.2996C1.63386 14.3732 3.57411 15 5.66067 15Z" fill="#EEF0F2"/>
</svg>
